<svg xmlns="http://www.w3.org/2000/svg" viewBox="0 0 1024 1024" width="1024" height="1024">
  <defs>
    <linearGradient id="bg3" x1="0" y1="0" x2="0" y2="1">
      <stop offset="0%" stop-color="#1E88E5"/>
      <stop offset="100%" stop-color="#1565C0"/>
    </linearGradient>
    <clipPath id="rounded3">
      <rect width="1024" height="1024" rx="224" ry="224"/>
    </clipPath>
  </defs>

  <!-- Blue gradient background -->
  <rect width="1024" height="1024" fill="url(#bg3)" clip-path="url(#rounded3)"/>

  <!-- Clipboard body -->
  <rect x="251" y="199" width="523" height="628" rx="46" ry="46" fill="#FFFFFF" fill-opacity="0.95"/>

  <!-- Clipboard clip -->
  <rect x="404" y="157" width="216" height="69" rx="34" ry="34" fill="#BBDEFB"/>
  <circle cx="512" cy="192" r="17" fill="#90CAF9"/>

  <!-- Row 1: Checked -->
  <circle cx="344" cy="351" r="27" fill="#1E88E5"/>
  <polyline points="331,351 341,364 361,338" fill="none" stroke="#FFFFFF" stroke-width="8" stroke-linecap="round" stroke-linejoin="round"/>
  <rect x="395" y="339" width="287" height="23" rx="12" fill="#90CAF9"/>

  <!-- Row 2: Checked -->
  <circle cx="344" cy="464" r="27" fill="#1E88E5"/>
  <polyline points="331,464 341,477 361,451" fill="none" stroke="#FFFFFF" stroke-width="8" stroke-linecap="round" stroke-linejoin="round"/>
  <rect x="395" y="452" width="231" height="23" rx="12" fill="#90CAF9"/>

  <!-- Row 3: Unchecked -->
  <circle cx="344" cy="578" r="27" fill="none" stroke="#1E88E5" stroke-width="7"/>
  <rect x="395" y="567" width="261" height="23" rx="12" fill="#BBDEFB"/>
</svg>
